<svg xmlns="http://www.w3.org/2000/svg" viewBox="0 0 397.23 283.18"><defs><style>.cls-1{fill:#ff3431;}.cls-2{opacity:0.5;}.cls-3{fill:gray;}.cls-4{fill:#340034;}</style></defs><title>Begin</title><g id="Layer_2" data-name="Layer 2"><g id="Layer_2-2" data-name="Layer 2"><path class="cls-1" d="M17,82.53H0V27H16.44v6.37a11.81,11.81,0,0,1,2.91-3.47,18.06,18.06,0,0,1,3.86-2.4A21.46,21.46,0,0,1,27.57,26,20.61,20.61,0,0,1,32,25.5,21.7,21.7,0,0,1,41,27.23,17.6,17.6,0,0,1,47.36,32,19.3,19.3,0,0,1,51,39a30.64,30.64,0,0,1,1.17,8.61V82.53h-17v-32A10.69,10.69,0,0,0,33,43.67q-2.18-2.74-6.88-2.74a8.56,8.56,0,0,0-6.71,2.74,10.06,10.06,0,0,0-2.46,7Z"/><path class="cls-1" d="M92,25.27a30.6,30.6,0,0,1,11.63,2.18A28.38,28.38,0,0,1,113,33.55a28.78,28.78,0,0,1,6.26,9.28,29.9,29.9,0,0,1,2.29,11.85,30.29,30.29,0,0,1-2.29,11.91A28.05,28.05,0,0,1,103.66,82,32.1,32.1,0,0,1,80.4,82,28.05,28.05,0,0,1,64.8,66.59a30.26,30.26,0,0,1-2.29-11.91A29.86,29.86,0,0,1,64.8,42.83a28.72,28.72,0,0,1,6.26-9.28,28.35,28.35,0,0,1,9.34-6.09A30.59,30.59,0,0,1,92,25.27Zm0,43.28a13.26,13.26,0,0,0,4.7-.84,11.05,11.05,0,0,0,4-2.57,13.05,13.05,0,0,0,2.79-4.31,16.09,16.09,0,0,0,1.06-6.15,16.21,16.21,0,0,0-1.06-6.09,12.35,12.35,0,0,0-2.79-4.3,11.45,11.45,0,0,0-4-2.52,13.29,13.29,0,0,0-4.7-.84,13.43,13.43,0,0,0-4.64.84,11.31,11.31,0,0,0-4,2.52,12.3,12.3,0,0,0-2.79,4.3,16.15,16.15,0,0,0-1.06,6.09,16.14,16.14,0,0,0,1.06,6.09,12.89,12.89,0,0,0,2.79,4.36,10.93,10.93,0,0,0,4,2.57A13.41,13.41,0,0,0,92,68.55Z"/><path class="cls-1" d="M143.58,81.41a11.79,11.79,0,0,0,4,6.65,11.93,11.93,0,0,0,7.94,2.63q6.38,0,10.06-3.3t3.69-10.9V73.92a15.23,15.23,0,0,1-5.2,4.25,20,20,0,0,1-9.67,2A25,25,0,0,1,136,72.41a26.32,26.32,0,0,1-5.42-8.55,29.92,29.92,0,0,1-.06-21.13,27.41,27.41,0,0,1,5.31-8.67,24.77,24.77,0,0,1,18.62-8.11,24.28,24.28,0,0,1,6,.67,20.62,20.62,0,0,1,4.53,1.68,13,13,0,0,1,3.13,2.24,9.47,9.47,0,0,1,1.79,2.35V27h16.21V75.59A36.9,36.9,0,0,1,184.34,87,26.67,26.67,0,0,1,179,96.51a25.48,25.48,0,0,1-9.23,6.54,33.9,33.9,0,0,1-13.42,2.4,33.31,33.31,0,0,1-10.9-1.68A28.1,28.1,0,0,1,137,99.3a24.22,24.22,0,0,1-5.7-6.37,19.53,19.53,0,0,1-2.74-7.27Zm14-16a11.58,11.58,0,0,0,8.55-3.3q3.3-3.3,3.3-9a13.18,13.18,0,0,0-1-5.09,12,12,0,0,0-2.57-3.91,10.8,10.8,0,0,0-3.8-2.46,12.64,12.64,0,0,0-9.06,0,11.37,11.37,0,0,0-3.86,2.46A11.49,11.49,0,0,0,146.55,48a13.15,13.15,0,0,0-1,5.09q0,5.7,3.41,9A11.8,11.8,0,0,0,157.56,65.42Z"/><path class="cls-1" d="M211.46,81.41a11.79,11.79,0,0,0,4,6.65,11.93,11.93,0,0,0,7.94,2.63q6.38,0,10.06-3.3t3.69-10.9V73.92a15.23,15.23,0,0,1-5.2,4.25,20,20,0,0,1-9.67,2,25,25,0,0,1-18.45-7.77,26.29,26.29,0,0,1-5.42-8.55,29.91,29.91,0,0,1-.06-21.13,27.41,27.41,0,0,1,5.31-8.67,25,25,0,0,1,8.16-5.93,24.77,24.77,0,0,1,10.46-2.18,24.26,24.26,0,0,1,6,.67,20.65,20.65,0,0,1,4.53,1.68A13.07,13.07,0,0,1,236,30.53a9.49,9.49,0,0,1,1.79,2.35V27H254V75.59A36.87,36.87,0,0,1,252.22,87a26.67,26.67,0,0,1-5.37,9.51,25.47,25.47,0,0,1-9.22,6.54,33.9,33.9,0,0,1-13.42,2.4,33.3,33.3,0,0,1-10.9-1.68,28.07,28.07,0,0,1-8.39-4.47,24.19,24.19,0,0,1-5.7-6.37,19.53,19.53,0,0,1-2.74-7.27Zm14-16a11.57,11.57,0,0,0,8.55-3.3q3.3-3.3,3.3-9a13.18,13.18,0,0,0-1-5.09,12,12,0,0,0-2.57-3.91,10.79,10.79,0,0,0-3.8-2.46,12.65,12.65,0,0,0-9.06,0A11.36,11.36,0,0,0,214.42,48a13.18,13.18,0,0,0-.95,5.09q0,5.7,3.41,9A11.81,11.81,0,0,0,225.44,65.42Z"/><path class="cls-1" d="M266.81,10a9.76,9.76,0,0,1,.78-3.86,9.92,9.92,0,0,1,2.13-3.19A10.1,10.1,0,0,1,272.85.78a9.38,9.38,0,0,1,3.8-.78,9.73,9.73,0,0,1,7.16,2.91,9.6,9.6,0,0,1,2.91,7,9.6,9.6,0,0,1-2.91,7,9.73,9.73,0,0,1-7.16,2.91,9.37,9.37,0,0,1-3.8-.78A10.09,10.09,0,0,1,269.72,17a9.93,9.93,0,0,1-2.12-3.19A9.77,9.77,0,0,1,266.81,10Zm1.45,72.58V27h17V82.53Z"/><path class="cls-1" d="M317.13,82.53h-17V27h16.44v6.37a11.81,11.81,0,0,1,2.91-3.47,18.09,18.09,0,0,1,3.86-2.4A21.46,21.46,0,0,1,327.7,26a20.61,20.61,0,0,1,4.42-.5,21.7,21.7,0,0,1,9.06,1.73A17.6,17.6,0,0,1,347.49,32a19.3,19.3,0,0,1,3.69,7,30.64,30.64,0,0,1,1.17,8.61V82.53h-17v-32a10.7,10.7,0,0,0-2.18-6.88q-2.18-2.74-6.88-2.74a8.56,8.56,0,0,0-6.71,2.74,10.06,10.06,0,0,0-2.46,7Z"/><path class="cls-1" d="M374.06,13.18V24h-4V13.18h-3.95V9.59H378v3.59ZM393.28,24V15.23L390,24h-3l-3.28-8.61V24h-3.91V9.59h5.61l3.16,7.66,3-7.66h5.61V24Z"/><g class="cls-2"><path class="cls-3" d="M34.26,148.7v12.76H31.14V148.7H28.27V146h2.87v-2.61a6.08,6.08,0,0,1,.4-2.29,4.84,4.84,0,0,1,1.1-1.67,4.51,4.51,0,0,1,1.61-1,5.68,5.68,0,0,1,2-.34,4.82,4.82,0,0,1,1.24.13,2.71,2.71,0,0,1,.56.19v2.71a2,2,0,0,0-.43-.13,4.59,4.59,0,0,0-.89-.06,3.29,3.29,0,0,0-.82.11,2.18,2.18,0,0,0-.8.4,2,2,0,0,0-.6.81,3.3,3.3,0,0,0-.23,1.32V146H38v2.74Z"/><path class="cls-3" d="M39.8,157.3a4.62,4.62,0,0,1,.36-1.85,4.08,4.08,0,0,1,1-1.4,4.91,4.91,0,0,1,1.5-.93,8.6,8.6,0,0,1,1.87-.52L48.7,152a1.38,1.38,0,0,0,1-.42,1.2,1.2,0,0,0,.24-.74,2.72,2.72,0,0,0-.79-1.95,3.43,3.43,0,0,0-2.56-.82,3.32,3.32,0,0,0-2.48.89,3.72,3.72,0,0,0-1,2.24l-2.9-.68a5.32,5.32,0,0,1,.66-2,5.44,5.44,0,0,1,1.37-1.59,6.4,6.4,0,0,1,1.95-1,7.47,7.47,0,0,1,2.37-.37,8.35,8.35,0,0,1,3,.47,5.59,5.59,0,0,1,2,1.24,4.67,4.67,0,0,1,1.13,1.8,6.62,6.62,0,0,1,.35,2.16v7.76q0,1,.06,1.64a8.84,8.84,0,0,0,.13.9h-3a6.46,6.46,0,0,1-.11-.77q0-.48,0-1.32a5.6,5.6,0,0,1-.68.87,5.13,5.13,0,0,1-1,.84,5.68,5.68,0,0,1-1.43.63,6.57,6.57,0,0,1-1.85.24,5.64,5.64,0,0,1-2.14-.39,5.3,5.3,0,0,1-1.63-1,4.41,4.41,0,0,1-1-1.47A4.33,4.33,0,0,1,39.8,157.3Zm5.61,2.09a6.2,6.2,0,0,0,1.76-.24,3.64,3.64,0,0,0,1.42-.77,3.7,3.7,0,0,0,1-1.42,5.77,5.77,0,0,0,.35-2.14v-.71l-4.74.71a3.18,3.18,0,0,0-1.61.72,2,2,0,0,0-.64,1.59,2.18,2.18,0,0,0,.68,1.56A2.45,2.45,0,0,0,45.41,159.4Z"/><path class="cls-3" d="M64.13,148.28a4.69,4.69,0,0,0-1.77.34,4.36,4.36,0,0,0-1.5,1,4.87,4.87,0,0,0-1,1.69,6.63,6.63,0,0,0-.39,2.37,6.53,6.53,0,0,0,.39,2.34,5.17,5.17,0,0,0,1,1.71,4.21,4.21,0,0,0,1.51,1,5.11,5.11,0,0,0,3.66,0,4.1,4.1,0,0,0,1.26-.81,4,4,0,0,0,.79-1,5.65,5.65,0,0,0,.42-1l2.67,1.16a8,8,0,0,1-.84,1.69,6.64,6.64,0,0,1-1.42,1.56,7.09,7.09,0,0,1-2,1.14,8.33,8.33,0,0,1-5.83-.19,7.33,7.33,0,0,1-2.46-1.74A8.3,8.3,0,0,1,56.93,157a8.75,8.75,0,0,1-.6-3.27,9,9,0,0,1,.6-3.32,7.73,7.73,0,0,1,1.64-2.59,7.54,7.54,0,0,1,2.48-1.69,8.35,8.35,0,0,1,5.8-.18,6.9,6.9,0,0,1,2,1.14,6,6,0,0,1,1.37,1.59,8.09,8.09,0,0,1,.77,1.76l-2.74,1.16a6.48,6.48,0,0,0-.45-1.16,3.69,3.69,0,0,0-.79-1,4.16,4.16,0,0,0-1.21-.77A4.3,4.3,0,0,0,64.13,148.28Z"/><path class="cls-3" d="M74,140.1a2.12,2.12,0,0,1,.63-1.56,2.08,2.08,0,0,1,1.53-.63,2.15,2.15,0,0,1,2.19,2.19,2.08,2.08,0,0,1-.63,1.53,2.12,2.12,0,0,1-1.56.63A2.15,2.15,0,0,1,74,140.1Zm.68,21.36V146h3v15.5Z"/><path class="cls-3" d="M81.88,157.3a4.63,4.63,0,0,1,.35-1.85,4.08,4.08,0,0,1,1-1.4,4.92,4.92,0,0,1,1.5-.93,8.57,8.57,0,0,1,1.87-.52l4.19-.61a1.37,1.37,0,0,0,.95-.42,1.19,1.19,0,0,0,.24-.74,2.72,2.72,0,0,0-.79-1.95,3.43,3.43,0,0,0-2.56-.82,3.32,3.32,0,0,0-2.48.89,3.72,3.72,0,0,0-1,2.24l-2.9-.68a5.3,5.3,0,0,1,.66-2,5.44,5.44,0,0,1,1.37-1.59,6.41,6.41,0,0,1,1.95-1,7.47,7.47,0,0,1,2.37-.37,8.36,8.36,0,0,1,3,.47,5.6,5.6,0,0,1,2,1.24,4.65,4.65,0,0,1,1.13,1.8,6.6,6.6,0,0,1,.36,2.16v7.76a16.15,16.15,0,0,0,.06,1.64,8.31,8.31,0,0,0,.13.9h-3a7.09,7.09,0,0,1-.11-.77q0-.48,0-1.32a5.6,5.6,0,0,1-.68.87,5.11,5.11,0,0,1-1,.84,5.66,5.66,0,0,1-1.43.63,6.55,6.55,0,0,1-1.85.24,5.64,5.64,0,0,1-2.14-.39,5.28,5.28,0,0,1-1.63-1,4.43,4.43,0,0,1-1-1.47A4.33,4.33,0,0,1,81.88,157.3Zm5.61,2.09a6.19,6.19,0,0,0,1.76-.24,3.65,3.65,0,0,0,1.42-.77,3.71,3.71,0,0,0,1-1.42,5.77,5.77,0,0,0,.35-2.14v-.71l-4.74.71a3.18,3.18,0,0,0-1.61.72,2,2,0,0,0-.64,1.59,2.18,2.18,0,0,0,.68,1.56A2.45,2.45,0,0,0,87.49,159.4Z"/><path class="cls-3" d="M99.7,161.46V138.13h3v23.33Z"/><path class="cls-3" d="M124.54,149a9.31,9.31,0,0,0-1.32-.1,4.3,4.3,0,0,0-3.08,1.11,4.85,4.85,0,0,0-1.18,3.66v7.76h-3V146h3v2.71a5,5,0,0,1,1-1.47,5.27,5.27,0,0,1,1.18-.9,4.34,4.34,0,0,1,1.26-.47,6.25,6.25,0,0,1,1.22-.13,5.11,5.11,0,0,1,.6,0l.4.06Z"/><path class="cls-3" d="M141.1,157a6.8,6.8,0,0,1-1,1.92,6.87,6.87,0,0,1-1.51,1.55,7.29,7.29,0,0,1-2,1,7.6,7.6,0,0,1-2.48.39,8.15,8.15,0,0,1-3-.55,7.23,7.23,0,0,1-2.5-1.61,7.62,7.62,0,0,1-1.71-2.61,9.24,9.24,0,0,1-.63-3.51,8.74,8.74,0,0,1,.61-3.33,8.29,8.29,0,0,1,1.63-2.58,7.22,7.22,0,0,1,2.37-1.68,6.9,6.9,0,0,1,2.8-.6,8.05,8.05,0,0,1,3.17.6,6.4,6.4,0,0,1,2.34,1.66,7.35,7.35,0,0,1,1.43,2.56,10.39,10.39,0,0,1,.5,3.3c0,.19,0,.38,0,.55a3.44,3.44,0,0,1,0,.42H129.47a5.45,5.45,0,0,0,.39,1.9,4.5,4.5,0,0,0,1,1.5,4.33,4.33,0,0,0,1.48,1,4.89,4.89,0,0,0,1.82.34,4.19,4.19,0,0,0,2.9-.9,5.22,5.22,0,0,0,1.45-2.22ZM138,152.11a4.24,4.24,0,0,0-1.13-2.82,4.06,4.06,0,0,0-3.12-1.14,4.19,4.19,0,0,0-1.72.34,4,4,0,0,0-1.29.9,4.66,4.66,0,0,0-.85,1.27,3.87,3.87,0,0,0-.35,1.45Z"/><path class="cls-3" d="M151.57,148.28a4.68,4.68,0,0,0-1.77.34,4.35,4.35,0,0,0-1.5,1,4.86,4.86,0,0,0-1,1.69,6.63,6.63,0,0,0-.39,2.37,6.53,6.53,0,0,0,.39,2.34,5.17,5.17,0,0,0,1,1.71,4.21,4.21,0,0,0,1.51,1,5.11,5.11,0,0,0,3.66,0,4.09,4.09,0,0,0,1.26-.81,4,4,0,0,0,.79-1,5.64,5.64,0,0,0,.42-1l2.67,1.16a8,8,0,0,1-.84,1.69,6.64,6.64,0,0,1-1.42,1.56,7.1,7.1,0,0,1-2,1.14,8.33,8.33,0,0,1-5.83-.19,7.34,7.34,0,0,1-2.46-1.74,8.32,8.32,0,0,1-1.63-2.61,8.77,8.77,0,0,1-.6-3.27,9,9,0,0,1,.6-3.32,7.74,7.74,0,0,1,1.64-2.59,7.53,7.53,0,0,1,2.48-1.69,8.35,8.35,0,0,1,5.8-.18,6.89,6.89,0,0,1,2,1.14,6,6,0,0,1,1.37,1.59,8.09,8.09,0,0,1,.77,1.76l-2.74,1.16a6.48,6.48,0,0,0-.45-1.16,3.69,3.69,0,0,0-.79-1,4.17,4.17,0,0,0-1.21-.77A4.3,4.3,0,0,0,151.57,148.28Z"/><path class="cls-3" d="M168.61,145.48a7.93,7.93,0,0,1,3.19.63,7.78,7.78,0,0,1,2.51,1.72,7.65,7.65,0,0,1,1.64,2.59,9,9,0,0,1,.58,3.27A9.11,9.11,0,0,1,176,157a7.6,7.6,0,0,1-1.64,2.61,7.77,7.77,0,0,1-2.51,1.72,8.41,8.41,0,0,1-6.38,0,7.77,7.77,0,0,1-2.51-1.72,7.59,7.59,0,0,1-1.64-2.61,9.11,9.11,0,0,1-.58-3.29,9,9,0,0,1,.58-3.27,7.64,7.64,0,0,1,1.64-2.59,7.78,7.78,0,0,1,2.51-1.72A7.93,7.93,0,0,1,168.61,145.48Zm0,13.76a4.82,4.82,0,0,0,1.84-.35,4.44,4.44,0,0,0,1.55-1.06,5,5,0,0,0,1.06-1.74,6.76,6.76,0,0,0,.39-2.38,6.63,6.63,0,0,0-.39-2.37A5.08,5.08,0,0,0,172,149.6a4.45,4.45,0,0,0-1.55-1.06,4.93,4.93,0,0,0-3.67,0,4.45,4.45,0,0,0-1.55,1.06,5.06,5.06,0,0,0-1.06,1.72,6.63,6.63,0,0,0-.39,2.37,6.76,6.76,0,0,0,.39,2.38,5,5,0,0,0,1.06,1.74,4.44,4.44,0,0,0,1.55,1.06A4.82,4.82,0,0,0,168.61,159.23Z"/><path class="cls-3" d="M183.43,161.46h-3V146h3v2.22a4.89,4.89,0,0,1,2.13-2.06,6.1,6.1,0,0,1,2.64-.61,5.94,5.94,0,0,1,2.43.47,4.79,4.79,0,0,1,1.74,1.29,5.38,5.38,0,0,1,1,1.95,8.37,8.37,0,0,1,.34,2.42v9.83h-3v-9.31a6.23,6.23,0,0,0-.18-1.51,3.12,3.12,0,0,0-.61-1.24,3,3,0,0,0-1.13-.84,4.18,4.18,0,0,0-1.69-.31,3.49,3.49,0,0,0-1.58.34,3.25,3.25,0,0,0-1.13.92,4,4,0,0,0-.68,1.35,5.8,5.8,0,0,0-.23,1.64Z"/><path class="cls-3" d="M199.8,156.46a3.33,3.33,0,0,0,1.06,2.06,3.6,3.6,0,0,0,2.54.84,2.84,2.84,0,0,0,2-.61,1.89,1.89,0,0,0,.68-1.45,1.71,1.71,0,0,0-.51-1.26,3,3,0,0,0-1.48-.74l-2.64-.58a5,5,0,0,1-2.85-1.55,4.11,4.11,0,0,1-1-2.8,4.22,4.22,0,0,1,.43-1.88,5.21,5.21,0,0,1,1.18-1.56,5.45,5.45,0,0,1,1.76-1.06,6,6,0,0,1,2.14-.39,6.9,6.9,0,0,1,2.66.45,5.55,5.55,0,0,1,1.76,1.11,4.87,4.87,0,0,1,1,1.37,6.73,6.73,0,0,1,.47,1.22l-2.67,1a6.5,6.5,0,0,0-.23-.74,2.65,2.65,0,0,0-.51-.85,3,3,0,0,0-1-.69,3.53,3.53,0,0,0-1.51-.29,2.71,2.71,0,0,0-1.87.63,1.88,1.88,0,0,0-.71,1.43q0,1.48,1.77,1.87l2.51.55a5.76,5.76,0,0,1,3.21,1.66,4.41,4.41,0,0,1,.73,4.62,5,5,0,0,1-1,1.55,5.14,5.14,0,0,1-1.76,1.14,6.62,6.62,0,0,1-2.51.44,7.51,7.51,0,0,1-2.75-.45,6.26,6.26,0,0,1-1.9-1.13,5.06,5.06,0,0,1-1.16-1.47,4.74,4.74,0,0,1-.5-1.47Z"/><path class="cls-3" d="M217.13,146h3.35v2.74h-3.35v8.05a2.3,2.3,0,0,0,.48,1.59,2.19,2.19,0,0,0,1.68.53l.64,0a2.56,2.56,0,0,0,.55-.1v2.58a7.57,7.57,0,0,1-.74.18,6.66,6.66,0,0,1-1.32.11,4.3,4.3,0,0,1-3.16-1.14,4.39,4.39,0,0,1-1.16-3.27V148.7h-3V146H212a2.24,2.24,0,0,0,1.82-.68,2.58,2.58,0,0,0,.56-1.71v-2.51h2.77Z"/><path class="cls-3" d="M232.79,149a9.34,9.34,0,0,0-1.32-.1A4.3,4.3,0,0,0,228.4,150a4.86,4.86,0,0,0-1.18,3.66v7.76h-3V146h3v2.71a5.06,5.06,0,0,1,1-1.47,5.27,5.27,0,0,1,1.18-.9,4.35,4.35,0,0,1,1.26-.47,6.24,6.24,0,0,1,1.22-.13,5.13,5.13,0,0,1,.6,0l.4.06Z"/><path class="cls-3" d="M246.39,159.59a3.87,3.87,0,0,1-1.93,1.79,6.54,6.54,0,0,1-2.64.56,5.89,5.89,0,0,1-2.43-.48,5.26,5.26,0,0,1-1.82-1.32,5.94,5.94,0,0,1-1.14-2,7.23,7.23,0,0,1-.4-2.45V146h3v9.31a5.91,5.91,0,0,0,.19,1.53,3.59,3.59,0,0,0,.61,1.27,3,3,0,0,0,1.08.87,3.69,3.69,0,0,0,1.63.32,3.39,3.39,0,0,0,2.75-1.1,4.32,4.32,0,0,0,.92-2.87V146h3v12.63q0,.93,0,1.69t.11,1.18h-2.9a4.69,4.69,0,0,1-.1-.82Q246.39,160.07,246.39,159.59Z"/><path class="cls-3" d="M260.76,148.28a4.69,4.69,0,0,0-1.77.34,4.36,4.36,0,0,0-1.5,1,4.86,4.86,0,0,0-1,1.69,6.63,6.63,0,0,0-.39,2.37,6.53,6.53,0,0,0,.39,2.34,5.15,5.15,0,0,0,1,1.71,4.2,4.2,0,0,0,1.51,1,5.11,5.11,0,0,0,3.66,0,4.09,4.09,0,0,0,1.26-.81,4,4,0,0,0,.79-1,5.72,5.72,0,0,0,.42-1l2.67,1.16a8,8,0,0,1-.84,1.69,6.66,6.66,0,0,1-1.42,1.56,7.1,7.1,0,0,1-2,1.14,8.33,8.33,0,0,1-5.83-.19,7.34,7.34,0,0,1-2.46-1.74,8.32,8.32,0,0,1-1.63-2.61,8.77,8.77,0,0,1-.6-3.27,9,9,0,0,1,.6-3.32,7.75,7.75,0,0,1,1.64-2.59,7.53,7.53,0,0,1,2.48-1.69,7.75,7.75,0,0,1,3.08-.61,7.83,7.83,0,0,1,2.72.43,6.89,6.89,0,0,1,2,1.14,6,6,0,0,1,1.37,1.59,8,8,0,0,1,.77,1.76l-2.74,1.16a6.56,6.56,0,0,0-.45-1.16,3.7,3.7,0,0,0-.79-1,4.18,4.18,0,0,0-1.21-.77A4.29,4.29,0,0,0,260.76,148.28Z"/><path class="cls-3" d="M275.39,146h3.35v2.74h-3.35v8.05a2.3,2.3,0,0,0,.48,1.59,2.19,2.19,0,0,0,1.68.53l.64,0a2.56,2.56,0,0,0,.55-.1v2.58a7.57,7.57,0,0,1-.74.18,6.66,6.66,0,0,1-1.32.11,4.3,4.3,0,0,1-3.16-1.14,4.39,4.39,0,0,1-1.16-3.27V148.7h-3V146h.84a2.24,2.24,0,0,0,1.82-.68,2.58,2.58,0,0,0,.56-1.71v-2.51h2.77Z"/><path class="cls-3" d="M282.09,140.1a2.12,2.12,0,0,1,.63-1.56,2.08,2.08,0,0,1,1.53-.63,2.15,2.15,0,0,1,2.19,2.19,2.08,2.08,0,0,1-.63,1.53,2.12,2.12,0,0,1-1.56.63,2.15,2.15,0,0,1-2.16-2.16Zm.68,21.36V146h3v15.5Z"/><path class="cls-3" d="M297.55,145.48a7.94,7.94,0,0,1,3.19.63,7.77,7.77,0,0,1,2.51,1.72,7.64,7.64,0,0,1,1.64,2.59,9,9,0,0,1,.58,3.27,9.11,9.11,0,0,1-.58,3.29,7.59,7.59,0,0,1-1.64,2.61,7.76,7.76,0,0,1-2.51,1.72,8.42,8.42,0,0,1-6.38,0,7.77,7.77,0,0,1-2.51-1.72,7.57,7.57,0,0,1-1.64-2.61,9.11,9.11,0,0,1-.58-3.29,9,9,0,0,1,.58-3.27,7.62,7.62,0,0,1,1.64-2.59,7.79,7.79,0,0,1,2.51-1.72A7.94,7.94,0,0,1,297.55,145.48Zm0,13.76a4.82,4.82,0,0,0,1.84-.35,4.44,4.44,0,0,0,1.55-1.06,5,5,0,0,0,1.06-1.74,6.76,6.76,0,0,0,.39-2.38,6.63,6.63,0,0,0-.39-2.37,5.08,5.08,0,0,0-1.06-1.72,4.45,4.45,0,0,0-1.55-1.06,4.93,4.93,0,0,0-3.67,0,4.44,4.44,0,0,0-1.55,1.06,5.08,5.08,0,0,0-1.06,1.72,6.63,6.63,0,0,0-.39,2.37,6.76,6.76,0,0,0,.39,2.38,5,5,0,0,0,1.06,1.74,4.42,4.42,0,0,0,1.55,1.06A4.82,4.82,0,0,0,297.55,159.23Z"/><path class="cls-3" d="M312.37,161.46h-3V146h3v2.22a4.89,4.89,0,0,1,2.13-2.06,6.1,6.1,0,0,1,2.64-.61,5.94,5.94,0,0,1,2.43.47,4.79,4.79,0,0,1,1.74,1.29,5.38,5.38,0,0,1,1,1.95,8.37,8.37,0,0,1,.34,2.42v9.83h-3v-9.31a6.23,6.23,0,0,0-.18-1.51,3.12,3.12,0,0,0-.61-1.24,3,3,0,0,0-1.13-.84,4.18,4.18,0,0,0-1.69-.31,3.49,3.49,0,0,0-1.58.34,3.25,3.25,0,0,0-1.13.92,4,4,0,0,0-.68,1.35,5.8,5.8,0,0,0-.23,1.64Z"/></g></g><g id="Layer_1-2" data-name="Layer 1"><path class="cls-1" d="M270.61,277c8.18-8.18,8.18-30.37,0-38.55s-182.8-8.18-191,0-8.18,30.37,0,38.55S262.43,285.22,270.61,277Z"/><path class="cls-4" d="M149.33,247a7.36,7.36,0,0,1,2.43.38,5.18,5.18,0,0,1,1.81,1,4.53,4.53,0,0,1,1.12,1.56,4.87,4.87,0,0,1,.39,2,4.17,4.17,0,0,1-.78,2.51,3.75,3.75,0,0,1-1.92,1.44,4.43,4.43,0,0,1,1.21.51,4.3,4.3,0,0,1,1.05.9,4.16,4.16,0,0,1,.74,1.29,4.65,4.65,0,0,1,.27,1.63,5.16,5.16,0,0,1-.42,2.09,4.93,4.93,0,0,1-1.17,1.65,5.31,5.31,0,0,1-1.82,1.09,6.85,6.85,0,0,1-2.37.39h-7.44V247Zm-.65,7.38a2.61,2.61,0,0,0,1.73-.53,1.81,1.81,0,0,0,.64-1.47,1.84,1.84,0,0,0-.6-1.44,2.67,2.67,0,0,0-1.82-.53h-2.18v4Zm.34,7.7a2.77,2.77,0,0,0,1.87-.59,2,2,0,0,0,.68-1.57,2,2,0,0,0-.66-1.56,2.72,2.72,0,0,0-1.88-.6h-2.57v4.32Z"/><path class="cls-4" d="M170.1,261.71a5.72,5.72,0,0,1-.73,1.59,5.1,5.1,0,0,1-1.25,1.31,6.07,6.07,0,0,1-1.75.88,7.19,7.19,0,0,1-2.22.32,7.05,7.05,0,0,1-2.55-.47,6.48,6.48,0,0,1-2.16-1.35,6.39,6.39,0,0,1-1.48-2.16,7.35,7.35,0,0,1-.55-2.91,7.18,7.18,0,0,1,.53-2.82,6.56,6.56,0,0,1,1.43-2.14,6.39,6.39,0,0,1,2.07-1.37,6.31,6.31,0,0,1,2.42-.48,6.39,6.39,0,0,1,4.75,1.74,6.64,6.64,0,0,1,1.73,4.89q0,.42,0,.79a2.14,2.14,0,0,1-.05.43h-9a2.28,2.28,0,0,0,.27,1,2.7,2.7,0,0,0,.65.79,2.89,2.89,0,0,0,.92.52,3.26,3.26,0,0,0,1.09.18,2.5,2.5,0,0,0,2.6-1.69Zm-3.59-4.29a2.79,2.79,0,0,0-.17-.75,1.92,1.92,0,0,0-.46-.7,2.54,2.54,0,0,0-.79-.52,3,3,0,0,0-1.18-.21,2.68,2.68,0,0,0-1.09.21,2.77,2.77,0,0,0-.79.52,2.14,2.14,0,0,0-.49.7,2.3,2.3,0,0,0-.19.75Z"/><path class="cls-4" d="M175.46,265.16a2.74,2.74,0,0,0,.94,1.55,2.77,2.77,0,0,0,1.85.61,3.39,3.39,0,0,0,2.34-.77,3.26,3.26,0,0,0,.86-2.54v-.6a3.55,3.55,0,0,1-1.21,1,4.65,4.65,0,0,1-2.25.47,5.83,5.83,0,0,1-4.29-1.81,6.13,6.13,0,0,1-1.26-2,7,7,0,0,1,0-4.91,6.37,6.37,0,0,1,1.23-2,5.83,5.83,0,0,1,1.9-1.38,5.76,5.76,0,0,1,2.43-.51,5.66,5.66,0,0,1,1.39.16,4.81,4.81,0,0,1,1.05.39,3,3,0,0,1,.73.52,2.19,2.19,0,0,1,.42.55V252.5h3.77v11.31a8.58,8.58,0,0,1-.4,2.65,6.19,6.19,0,0,1-1.25,2.21,5.93,5.93,0,0,1-2.14,1.52,7.89,7.89,0,0,1-3.12.56,7.75,7.75,0,0,1-2.54-.39,6.56,6.56,0,0,1-2-1,5.64,5.64,0,0,1-1.33-1.48,4.55,4.55,0,0,1-.64-1.69Zm3.25-3.72a2.69,2.69,0,0,0,2-.77,2.83,2.83,0,0,0,.77-2.09,3.06,3.06,0,0,0-.22-1.18,2.78,2.78,0,0,0-.6-.91,2.51,2.51,0,0,0-.88-.57,2.94,2.94,0,0,0-2.11,0,2.64,2.64,0,0,0-.9.57,2.68,2.68,0,0,0-.61.91,3.06,3.06,0,0,0-.22,1.18,2.77,2.77,0,0,0,.79,2.09A2.74,2.74,0,0,0,178.71,261.45Z"/><path class="cls-4" d="M188.33,248.55a2.28,2.28,0,0,1,.18-.9,2.31,2.31,0,0,1,.49-.74,2.35,2.35,0,0,1,.73-.49,2.19,2.19,0,0,1,.88-.18,2.26,2.26,0,0,1,1.66.68,2.32,2.32,0,0,1,0,3.28,2.26,2.26,0,0,1-1.66.68,2.17,2.17,0,0,1-.88-.18,2.35,2.35,0,0,1-.73-.49,2.31,2.31,0,0,1-.49-.74A2.28,2.28,0,0,1,188.33,248.55Zm.34,16.87V252.5h4v12.92Z"/><path class="cls-4" d="M200,265.42h-4V252.5h3.82V254a2.75,2.75,0,0,1,.68-.81,4.21,4.21,0,0,1,.9-.56,4.93,4.93,0,0,1,1-.34,4.77,4.77,0,0,1,1-.12,5.05,5.05,0,0,1,2.11.4,4.1,4.1,0,0,1,1.47,1.11,4.5,4.5,0,0,1,.86,1.64,7.14,7.14,0,0,1,.27,2v8.11h-4V258a2.49,2.49,0,0,0-.51-1.6,1.92,1.92,0,0,0-1.6-.64,2,2,0,0,0-1.56.64A2.34,2.34,0,0,0,200,258Z"/></g></g></svg>