<svg xmlns="http://www.w3.org/2000/svg" viewBox="0 0 144.45 37.75"><defs><style>.cls-1{fill:#ff3431;}</style></defs><title>Asset 1</title><g id="Layer_2" data-name="Layer 2"><g id="Layer_1-2" data-name="Layer 1"><path class="cls-1" d="M6.09,29.54H0V9.65H5.89v2.28a4.24,4.24,0,0,1,1-1.24,6.43,6.43,0,0,1,1.38-.86,7.68,7.68,0,0,1,1.56-.52,7.37,7.37,0,0,1,1.58-.18,7.76,7.76,0,0,1,3.24.62A6.3,6.3,0,0,1,17,11.45,6.91,6.91,0,0,1,18.28,14a11,11,0,0,1,.42,3.08V29.54H12.61V18.09a3.83,3.83,0,0,0-.78-2.46,3,3,0,0,0-2.46-1,3.06,3.06,0,0,0-2.4,1,3.6,3.6,0,0,0-.88,2.5Z"/><path class="cls-1" d="M32.95,9a11,11,0,0,1,4.16.78A10.15,10.15,0,0,1,40.45,12a10.29,10.29,0,0,1,2.24,3.32,10.7,10.7,0,0,1,.82,4.24,10.84,10.84,0,0,1-.82,4.26,10.05,10.05,0,0,1-5.58,5.53,11.5,11.5,0,0,1-8.33,0,10,10,0,0,1-5.58-5.53,10.83,10.83,0,0,1-.82-4.26,10.69,10.69,0,0,1,.82-4.24A10.27,10.27,0,0,1,25.44,12a10.15,10.15,0,0,1,3.34-2.18A11,11,0,0,1,32.95,9Zm0,15.49a4.75,4.75,0,0,0,1.68-.3,4,4,0,0,0,1.42-.92,4.66,4.66,0,0,0,1-1.54,5.76,5.76,0,0,0,.38-2.2,5.79,5.79,0,0,0-.38-2.18,4.41,4.41,0,0,0-1-1.54,4.09,4.09,0,0,0-1.42-.9,4.81,4.81,0,0,0-3.34,0,4,4,0,0,0-1.44.9,4.4,4.4,0,0,0-1,1.54,5.78,5.78,0,0,0-.38,2.18,5.78,5.78,0,0,0,.38,2.18,4.61,4.61,0,0,0,1,1.56,3.91,3.91,0,0,0,1.44.92A4.8,4.8,0,0,0,32.95,24.54Z"/><path class="cls-1" d="M51.4,29.14a4.22,4.22,0,0,0,1.44,2.38,4.27,4.27,0,0,0,2.84.94,5.21,5.21,0,0,0,3.6-1.18,5,5,0,0,0,1.32-3.9v-.92A5.46,5.46,0,0,1,58.75,28a7.15,7.15,0,0,1-3.46.72,9,9,0,0,1-6.61-2.78,9.41,9.41,0,0,1-1.94-3.06,10.71,10.71,0,0,1,0-7.57,9.79,9.79,0,0,1,1.9-3.1,8.87,8.87,0,0,1,6.67-2.9,8.69,8.69,0,0,1,2.14.24,7.38,7.38,0,0,1,1.62.6,4.68,4.68,0,0,1,1.12.8,3.37,3.37,0,0,1,.64.84V9.65h5.81V27.06A13.22,13.22,0,0,1,66,31.15a9.54,9.54,0,0,1-1.92,3.4,9.11,9.11,0,0,1-3.3,2.34,12.14,12.14,0,0,1-4.8.86,11.92,11.92,0,0,1-3.9-.6,10.07,10.07,0,0,1-3-1.6,8.67,8.67,0,0,1-2-2.28,7,7,0,0,1-1-2.6Zm5-5.72a4.14,4.14,0,0,0,3.06-1.18A4.35,4.35,0,0,0,60.65,19a4.72,4.72,0,0,0-.34-1.82,4.29,4.29,0,0,0-.92-1.4A3.87,3.87,0,0,0,58,14.91a4.53,4.53,0,0,0-3.24,0,4.07,4.07,0,0,0-1.38.88,4.12,4.12,0,0,0-.94,1.4A4.71,4.71,0,0,0,52.12,19a4.27,4.27,0,0,0,1.22,3.22A4.23,4.23,0,0,0,56.41,23.42Z"/><path class="cls-1" d="M75.7,29.14a4.22,4.22,0,0,0,1.44,2.38,4.27,4.27,0,0,0,2.84.94,5.21,5.21,0,0,0,3.6-1.18,5,5,0,0,0,1.32-3.9v-.92A5.46,5.46,0,0,1,83.05,28a7.15,7.15,0,0,1-3.46.72A9,9,0,0,1,73,25.92,9.41,9.41,0,0,1,71,22.86a10.71,10.71,0,0,1,0-7.57,9.79,9.79,0,0,1,1.9-3.1,8.87,8.87,0,0,1,6.67-2.9,8.69,8.69,0,0,1,2.14.24,7.38,7.38,0,0,1,1.62.6,4.68,4.68,0,0,1,1.12.8,3.37,3.37,0,0,1,.64.84V9.65h5.81V27.06a13.22,13.22,0,0,1-.62,4.08,9.54,9.54,0,0,1-1.92,3.4,9.11,9.11,0,0,1-3.3,2.34,12.14,12.14,0,0,1-4.8.86,11.92,11.92,0,0,1-3.9-.6,10.07,10.07,0,0,1-3-1.6,8.67,8.67,0,0,1-2-2.28,7,7,0,0,1-1-2.6Zm5-5.72a4.14,4.14,0,0,0,3.06-1.18A4.35,4.35,0,0,0,85,19a4.72,4.72,0,0,0-.34-1.82,4.29,4.29,0,0,0-.92-1.4,3.87,3.87,0,0,0-1.36-.88,4.53,4.53,0,0,0-3.24,0,4.07,4.07,0,0,0-1.38.88,4.12,4.12,0,0,0-.94,1.4A4.71,4.71,0,0,0,76.42,19a4.27,4.27,0,0,0,1.22,3.22A4.23,4.23,0,0,0,80.71,23.42Z"/><path class="cls-1" d="M95.52,3.56a3.5,3.5,0,0,1,.28-1.38A3.56,3.56,0,0,1,96.56,1,3.63,3.63,0,0,1,97.68.28,3.38,3.38,0,0,1,99,0a3.48,3.48,0,0,1,2.56,1,3.44,3.44,0,0,1,1,2.52,3.44,3.44,0,0,1-1,2.52,3.48,3.48,0,0,1-2.56,1,3.36,3.36,0,0,1-1.36-.28,3.62,3.62,0,0,1-1.12-.76,3.56,3.56,0,0,1-.76-1.14A3.5,3.5,0,0,1,95.52,3.56Zm.52,26V9.65h6.09v19.9Z"/><path class="cls-1" d="M113.54,29.54h-6.09V9.65h5.89v2.28a4.24,4.24,0,0,1,1-1.24,6.43,6.43,0,0,1,1.38-.86,7.68,7.68,0,0,1,1.56-.52,7.37,7.37,0,0,1,1.58-.18,7.76,7.76,0,0,1,3.24.62,6.3,6.3,0,0,1,2.26,1.7A6.91,6.91,0,0,1,125.73,14a11,11,0,0,1,.42,3.08V29.54h-6.09V18.09a3.83,3.83,0,0,0-.78-2.46,3,3,0,0,0-2.46-1,3.06,3.06,0,0,0-2.4,1,3.6,3.6,0,0,0-.88,2.5Z"/><path class="cls-1" d="M134,3.22V8.07h-1.81V3.22h-1.77V1.61h5.33V3.22Zm8.63,4.85V4.14l-1.45,3.93h-1.35l-1.47-3.86V8.07h-1.75V1.61h2.52L140.58,5l1.35-3.44h2.52V8.07Z"/></g></g></svg>